<?xml version="1.0"?>
<svg version="1.1" xmlns="http://www.w3.org/2000/svg" width="80" height="50" style=""><path fill="#158ee6" d="M15.953125,38.03125q0-0.546875,0.375-0.6953125t0.8125-0.1484375q0.765625,0,1.296875,0.6875t1.0078125,1.5078125t0.9453125,1.5078125t1.109375,0.6875q0.484375,0,0.8828125-0.2421875t0.6875-0.609375t0.4453125-0.828125t0.15625-0.9140625q0-1.1875-0.4765625-2.453125t-1.21875-2.609375t-1.5703125-2.75t-1.5625-2.859375t-1.21875-2.9609375t-0.484375-3.0390625q0-2.296875,1.375-3.5625t3.625-1.265625q0.765625,0,1.546875,0.21875t1.4375,0.65625t1.0703125,1.078125t0.4140625,1.5q0,0.28125-0.4140625,0.3671875t-0.6015625,0.0859375q-0.28125,0-0.609375-0.0703125t-0.421875-0.3828125t-0.265625-0.71875t-0.4296875-0.7578125t-0.609375-0.609375t-0.7734375-0.2578125q-0.703125,0-1.1953125,0.2890625t-0.796875,0.7734375t-0.453125,1.0859375t-0.1484375,1.2421875q0,1.5,0.515625,3.0234375t1.28125,3.03125t1.6640625,2.9765625t1.6640625,2.859375t1.28125,2.71875t0.515625,2.515625q0,1.0625-0.5,1.796875t-1.265625,1.1953125t-1.6953125,0.671875t-1.8203125,0.2109375q-0.953125,0-1.953125-0.3828125t-1.796875-1.0546875t-1.3125-1.5703125t-0.515625-1.9453125z M30.01046875,31.171875q0-2.6875,0.1484375-5.3125t0.3671875-5.3125q0.0625-0.703125,0.078125-1.359375t0.1484375-1.1484375t0.46875-0.78125t1.0390625-0.2890625q0.453125,0,0.9453125,0.15625t0.4921875,0.734375q0,2.171875-0.1796875,4.2734375t-0.2421875,4.1796875q1.703125-1.921875,3.640625-3.5859375t4.109375-3.2890625q0.3125-0.21875,0.796875-0.234375q0.15625,0,0.2734375,0.015625t0.2421875,0.046875q0.15625,0.0625,0.3203125,0.1484375t0.1640625,0.2421875q0,0.125-0.140625,0.21875q-1.625,1.3125-3.2109375,2.671875t-3.0234375,2.90625q0.1875,0.359375,0.3203125,0.671875t0.2890625,0.671875q1.3125,3.109375,2.2421875,6.3671875t1.9765625,6.4609375q0.09375,0.359375,0.2734375,0.7421875t0.3359375,0.765625t0.2734375,0.71875t0.1171875,0.5546875q0,0.28125-0.1796875,0.4453125t-0.4140625,0.2578125t-0.5078125,0.125t-0.5078125,0.03125q-0.546875,0-0.9765625-0.15625t-0.6796875-0.703125q-1.15625-3.6875-2.2265625-7.375t-2.1640625-7.4375q-0.359375,0.359375-0.71875,0.8984375t-0.65625,0.9921875q0,2.34375,0.109375,4.65625t0.375,4.65625q0.0625,0.671875,0.2109375,1.34375t0.1484375,1.375q0,0.515625-0.53125,0.71875t-1.171875,0.203125q-0.703125,0-1.0546875-0.140625t-0.5-0.3671875t-0.1796875-0.5t-0.09375-0.5234375q-0.359375-2.46875-0.453125-4.8828125t-0.09375-4.8515625z M46.0521875,25.984375q0-0.609375,0.0390625-1.7890625t0.1171875-2.4609375t0.203125-2.3984375t0.359375-1.6015625q0.125-0.25,0.3828125-0.3359375t0.5078125-0.0859375q0.15625,0,0.5234375,0.0859375t0.3671875,0.3359375q0,0.390625-0.09375,1.4765625t-0.171875,2.4921875t-0.109375,2.921875l0,0.671875q0,1.140625,0.078125,2.140625q0.109375,1.28125,0.4140625,2.109375t0.9140625,0.828125q0.828125,0,1.546875-0.4921875t1.3125-1.28125t1.0703125-1.765625t0.8125-1.921875t0.5625-1.7421875t0.3203125-1.25q0.09375-0.515625,0.1640625-1.375t0.2265625-1.6875t0.5546875-1.4375t1.1640625-0.609375q0.453125,0,0.8671875,0.15625t0.5390625,0.671875q-0.25,0.953125-0.421875,2.6484375t-0.2734375,3.5546875t-0.1484375,3.6015625t-0.046875,2.8359375q0,1.21875,0.03125,2.9765625t0.109375,3.6328125t0.1796875,3.6484375t0.2265625,2.9609375q0.125,0.25,0.125,0.578125q0,0.390625-0.15625,0.609375t-0.4296875,0.328125t-0.59375,0.140625t-0.6171875,0.03125q-0.453125,0-1.0078125-0.15625t-0.6796875-0.640625q-0.15625-0.578125-0.2578125-1.5234375t-0.1484375-2.0625t-0.078125-2.3359375t-0.03125-2.3359375t0.015625-2.078125t0.015625-1.5703125q0-1.1875,0.046875-2.3359375t0.109375-2.3359375q-0.390625,0.796875-0.9140625,1.6171875t-1.1953125,1.4921875t-1.5,1.1015625t-1.796875,0.4296875q-1.25,0-1.90625-0.671875t-0.953125-1.6640625t-0.3359375-2.109375t-0.0390625-2.0234375z"/><path fill="#" d=""/></svg>
